<?xml version="1.0" ?><svg height="60px" version="1.1" viewBox="0 0 60 60" width="60px" xmlns="http://www.w3.org/2000/svg" xmlns:xlink="http://www.w3.org/1999/xlink"><title/><desc/><defs/><g fill="none" fill-rule="evenodd" id="Page-1" stroke="none" stroke-width="1"><g id="Social_icons" transform="translate(-922.000000, -1455.000000)"><g id="Blogger" transform="translate(922.000000, 1455.000000)"><path d="M30,60 C46.5685425,60 60,46.5685425 60,30 C60,13.4314575 46.5685425,0 30,0 C13.4314575,0 0,13.4314575 0,30 C0,46.5685425 13.4314575,60 30,60 Z" fill="#F57D00" id="Combined-Shape"/><path d="M31.3260183,12 L31.3260183,12.0000123 L31.4041899,12.0000123 L31.4901786,12.0000123 C36.9636713,12.1492102 40.9616802,16.5967229 41.1365494,21.2810963 L41.1521837,21.2810963 C41.166117,21.4169566 41.1641408,21.5663814 41.1756226,21.7050661 C41.2848902,23.0257181 41.2702665,24.466569 40.9254736,25.9216383 C41.0954374,25.9279284 41.2600004,25.9347613 41.4257716,25.9447516 C42.8966978,26.0333073 44.6082948,26.2325207 46.100431,27.6406307 C47.5925673,29.0487407 47.8341962,30.8176154 47.9218284,32.1038762 C48.0094556,33.390137 47.9675907,34.6575791 48,36.3358655 L48,36.3898253 L48,36.4437851 C47.9649541,39.6760296 46.9850029,42.6949731 44.8731375,44.8383868 C42.7612721,46.9818004 39.745766,47.9731928 36.6651235,47.9988888 L36.6494892,47.9988888 L36.6338549,47.9988888 L23.5557526,47.9988888 C23.5399256,47.9990886 23.5246591,47.9987235 23.5088496,47.9988888 C20.2134643,48.0330999 17.021493,47.2827024 14.769269,45.0079747 C12.5546749,42.7712519 11.8508107,39.5947112 12.0254472,36.2587801 L12.0176175,36.2587801 C12.0177926,36.2272996 12.0249469,36.1977186 12.0254472,36.1662776 C12.0279487,36.1245429 12.0227706,36.0847224 12.0254472,36.0429409 L12.0410815,36.0429409 L12.2755962,21.7204708 L12.2834258,21.7204708 C12.3509186,19.8635683 12.774676,17.8381361 14.1282747,15.9698989 C15.8535473,13.5886749 19.0901752,12.1221156 22.7975009,12.1310452 L22.8834897,12.1310452 L31.3260183,12 Z M23.1725836,33.0003013 L23.1725836,33.0003013 C22.0445027,32.9850019 20.9952184,33.5533716 20.4265222,34.4877704 C19.8578259,35.4221692 19.8578259,36.5778308 20.4265222,37.5122296 C20.9952184,38.4466284 22.0445027,39.0149981 23.1725836,38.9996987 L37.8274164,38.9996987 C38.9554973,39.0149981 40.0047816,38.4466284 40.5734778,37.5122296 C41.1421741,36.5778308 41.1421741,35.4221692 40.5734778,34.4877704 C40.0047816,33.5533716 38.9554973,32.9850019 37.8274164,33.0003013 L23.1725836,33.0003013 Z M24.2715491,20.0003381 L24.2715491,20.0003381 C22.4916257,19.9759457 21.0270689,21.2744355 21.0003701,22.9005963 C20.9736712,24.5267571 22.3949406,25.8647949 24.174864,25.8891873 L31.7243584,25.9996032 C33.5042817,26.0260282 34.970642,24.7291863 34.9995657,23.1030255 C35.0284895,21.4768648 33.6090239,20.1371792 31.8291006,20.110754 L24.2715491,20.0003381 Z" fill="#FFFFFF" id="Combined-Shape"/></g></g></g></svg>